<svg width="18" height="17" fill="none" xmlns="http://www.w3.org/2000/svg"><path fill-rule="evenodd" clip-rule="evenodd" d="M7.075 6.1h3.04v1.464c.437-.843 1.56-1.6 3.246-1.6 3.234 0 4.002 1.677 4.002 4.754v5.697h-3.274v-4.997c0-1.752-.438-2.74-1.552-2.74-1.546 0-2.189 1.065-2.189 2.74v4.997H7.075V6.1zM1.462 16.28h3.273V5.966H1.462V16.28zM5.204 2.6c0 .266-.054.529-.16.774a2 2 0 01-.456.653c-.396.38-.932.594-1.49.593a2.157 2.157 0 01-1.487-.592 2.014 2.014 0 01-.455-.654 1.96 1.96 0 01-.16-.773c0-.536.22-1.05.615-1.428A2.153 2.153 0 013.1.582c.558 0 1.093.213 1.489.591.394.379.616.892.616 1.428z" fill="#007BB6"/></svg>