<svg width="14" height="17" fill="none" xmlns="http://www.w3.org/2000/svg"><path d="M7.1.9C2.78.9.52 3.56.52 6.505c0 1.425.786 2.85 2.063 3.61.392.19.294 0 .589-1.14 0-.095 0-.19-.098-.285-1.768-2.09-.295-6.175 3.83-6.175 5.99 0 4.812 7.98 1.08 7.98-.786.095-1.473-.475-1.473-1.235v-.38c.393-1.045.687-1.995.785-3.04 0-1.995-3.044-1.71-3.044.95 0 .475.098.95.295 1.33 0 0-.982 3.895-1.179 4.56-.196 1.14-.098 2.28.099 3.325-.099.095 0 .095 0 .095h.098c.687-.95 1.276-1.9 1.67-2.945.097-.475.588-2.185.588-2.185.491.665 1.375 1.045 2.26 1.045 3.043 0 5.204-2.565 5.204-5.7C13.287 3.18 10.537.9 7.1.9z" fill="#CB2056"/></svg>