<svg width="19" height="15" fill="none" xmlns="http://www.w3.org/2000/svg"><path d="M18.582 1.91a7.835 7.835 0 01-2.19.58A3.722 3.722 0 0018.07.448a7.769 7.769 0 01-2.42.894A3.855 3.855 0 0013.484.225a3.926 3.926 0 00-2.42.388 3.736 3.736 0 00-1.676 1.733 3.57 3.57 0 00-.237 2.362 11.113 11.113 0 01-4.353-1.119A10.768 10.768 0 011.294.854a3.595 3.595 0 00-.066 3.595 3.74 3.74 0 001.246 1.329 3.901 3.901 0 01-1.727-.462v.048c0 .852.305 1.677.862 2.336a3.838 3.838 0 002.196 1.28 3.966 3.966 0 01-1.721.064 3.697 3.697 0 001.356 1.832c.639.46 1.41.714 2.205.728a7.817 7.817 0 01-4.735 1.58 8.02 8.02 0 01-.91-.052 11.05 11.05 0 005.843 1.657c7.014 0 10.848-5.62 10.848-10.493a9.52 9.52 0 00-.012-.477 7.615 7.615 0 001.901-1.907l.002-.003z" fill="#10ADED"/></svg>