<svg width="1040" height="270" fill="none" xmlns="http://www.w3.org/2000/svg"><mask id="mask0_412_2127" style="mask-type:alpha" maskUnits="userSpaceOnUse" x="0" y="0" width="1040" height="270"><rect width="1040" height="270" rx="16" fill="#1E1E1E"/></mask><g mask="url(#mask0_412_2127)"><mask id="mask1_412_2127" style="mask-type:alpha" maskUnits="userSpaceOnUse" x="845" y="158" width="307" height="349"><ellipse cx="998.315" cy="332.141" rx="153.315" ry="174.141" fill="#F3B244" fill-opacity=".54"/></mask><g mask="url(#mask1_412_2127)" fill="#F3B244" fill-opacity=".54"><path d="M668.509 476.731v-7.795c30.039-17.186 60.702-32.048 91.989-44.829 34.006-13.894 68.635-24.448 103.265-35.196 15.064-4.647 30.083-9.682 44.835-15.637 16.624-6.729 31.065-18.445 42.563-35.921 8.156-12.394 14.128-26.482 19.254-41.247 6.418-18.639 11.142-38.052 16.267-57.32 6.507-24.642 13.148-49.235 18.008-74.554 4.45-23.287 8.87-46.524 13.72-69.665 4.46-21.301 10.03-42.215 18.05-61.774 13.95-34.033 35.12-55.19 64.41-61.919 13.28-3.05 26.69-3.873 40.15-3.292 24.25.968 48.45 2.614 72.69 3.583 38.73 1.597 77.24-.34 115.48-8.956 4.99-1.162 9.94-2.615 14.89-3.922h30.84c-3.93 1.453-7.8 3.05-11.77 4.309-37.39 12.103-75.45 17.477-113.83 18.493-24.46.678-48.89.145-73.36 0-18-.145-36.01-.387-53.97 2.566-13.86 2.275-27.27 6.584-39.66 15.298-16.27 11.425-28.35 28.418-37.62 49.041-8.51 18.833-14.57 39.117-19.3 60.031-5.12 22.851-9.4 46.04-14.75 68.794-7.67 32.871-15.911 65.501-24.022 98.179-4.457 17.864-9.627 35.341-16.624 51.801-10.073 23.722-24.424 41.247-43.722 51.22-6.819 3.582-13.861 6.826-20.992 8.907-21.259 6.197-42.607 11.813-63.955 17.622-41.983 11.474-83.298 26.046-123.454 45.943-16.624 8.182-32.936 17.477-49.382 26.24z"/><path d="M680.409 485.009c-3.655 0-7.309-.097-10.964.097-1.159.048-.891-.726-.936-1.549.579-.242 1.203-.388 1.738-.678 43.187-25.9 87.933-45.846 134.106-60.273 29.549-9.198 59.454-15.782 89.36-22.366 12.791-2.857 25.537-6.052 37.838-11.958 18.942-9.101 33.515-24.932 43.677-47.879 4.903-11.184 9.003-22.802 12.167-35.002 4.769-18.687 9.226-37.568 13.775-56.4 6.59-27.498 13.19-54.996 19.74-82.542 4.41-18.688 8.42-37.568 13.15-56.158 4.95-19.413 11.59-37.81 20.41-54.803 15.6-30.16 36.81-49.38 64.05-56.593 9.49-2.518 19.16-4.55 28.83-5.277 18.76-1.356 37.62-1.937 56.42-2.275 34.32-.678 68.68-1.792 102.82-7.165 25.36-3.97 50.45-9.731 75.01-19.075v10.264c-.76.29-1.51.58-2.32.871-35.03 11.958-70.77 18.251-106.83 21.398-25.49 2.179-51.07 3.34-76.61 4.89-18.27 1.065-36.59 2.081-54.73 5.954-13.86 3.002-27.32 7.698-39.98 16.025-17.42 11.522-30.7 28.95-41.53 49.96-9.76 18.785-16.54 39.457-21.93 60.855-6.29 25.174-12.35 50.445-18.23 75.764-6.82 29.144-13.37 58.385-20.1 87.529-4.19 18.155-8.825 36.067-15.867 52.721-9.181 21.688-22.462 37.132-40.156 45.943-10.785 5.373-21.927 8.52-33.292 10.65-22.641 4.309-45.415 7.891-68.012 12.781-55.22 11.958-108.39 32.92-159.554 62.79-.713.436-1.382 1.017-2.05 1.501z"/><path d="M705.635 485.009h-13.371c.669-.436 1.248-.968 1.917-1.356a531.583 531.583 0 0170.908-33.307c44.033-16.944 89.092-26.046 134.685-31.177 13.148-1.453 26.251-3.099 39.131-7.165 10.295-3.244 20.145-7.988 29.014-15.831 11.454-10.167 19.343-24.206 25.27-40.376 6.017-16.411 10.291-33.646 13.591-51.268 9.63-51.801 22.6-102.197 35.43-152.691 5.66-22.366 12.66-43.958 22.82-63.565 10.08-19.462 22.2-36.115 37.8-48.121 11.99-9.247 24.96-15.008 38.46-18.93 19.52-5.615 39.4-7.503 59.28-9.246 28.16-2.42 56.33-4.55 84.5-7.407 24.29-2.518 48.49-6.826 72.42-13.071 8.07-2.13 16.09-4.551 24.11-6.875v9.78c-.49.144-.93.387-1.42.532-36.73 10.94-74.03 16.654-111.47 20.817-25.85 2.905-51.7 5.374-77.5 8.375-16.18 1.888-32.23 5.132-47.91 10.7-20.24 7.213-38.42 19.267-53.62 38.584-14.53 18.445-25.23 40.327-33.03 64.533-11.85 36.793-21.34 74.748-29.9 113.042-5.13 22.802-8.83 46.185-13.24 69.277-3.25 17.089-6.91 34.034-12.61 50.106-9.092 25.659-23.755 42.554-44.524 50.204-11.766 4.357-23.8 6.245-35.922 7.358-15.599 1.356-31.243 2.227-46.841 3.873-52.145 5.471-102.686 20.382-151.622 44.588-5.482 2.711-10.874 5.761-16.356 8.617z"/><path d="M1381.6 3.65v9.78l-1.6.435c-27.28 6.875-54.78 11.668-82.32 15.589-27.77 3.97-55.53 7.6-83.25 11.764-18.19 2.711-36.15 6.778-53.8 13.168-38.82 14.04-67.43 44.442-85.84 91.499-6.32 16.121-11.63 32.871-16.58 49.767-8.06 27.547-15.73 55.287-20.14 84.334-3.65 23.77-6.91 47.589-10.47 71.359-2.5 16.702-5.44 33.211-10.66 48.896-5.61 16.847-14.08 30.306-27.004 38.294-5.616 3.486-11.588 5.761-17.694 7.262-13.548 3.389-27.32 3.679-41.047 3.34-19.744-.436-39.443-1.598-59.231-.387-46.842 2.759-92.301 14.717-136.469 35.244-.579.242-1.069.677-1.604 1.016h-15.242c.535-.339 1.069-.774 1.604-1.065 6.864-3.292 13.683-6.681 20.591-9.779 34.718-15.492 70.284-25.997 106.696-31.371 21.705-3.243 43.543-4.502 65.382-4.696 14.93-.097 29.861-.726 44.568-4.309 10.073-2.469 19.699-6.487 28.346-13.991 11.008-9.537 18.224-23.092 23.394-38.826 5.31-16.121 8.43-33.114 11.37-50.155 3.83-22.414 7.35-44.974 11.45-67.341 5.35-28.805 13.46-56.4 21.17-84.237 4.86-17.476 10.34-34.614 17.21-50.977 18.22-43.329 45.37-71.602 81.91-84.286 16.14-5.567 32.54-9.198 49.12-11.425 29.86-3.97 59.76-7.455 89.67-11.328 24.82-3.244 49.51-7.504 74.07-13.507 5.48-1.307 10.92-2.711 16.4-4.067z"/><path d="M1381.6 22.191v10.264c-.53 0-1.11 0-1.65.097-31.55 5.325-63.11 10.602-94.62 16.024-23.26 3.97-46.52 7.746-69.74 12.248-17.21 3.389-34.1 8.714-50.54 16.412-32.14 15.056-57.05 41.44-73.99 80.509-6.73 15.492-12.3 31.661-17.6 48.073-8.25 25.513-15.29 51.462-19.3 78.766-3.57 24.255-5.84 48.799-7.98 73.344-1.65 18.542-3.12 37.181-6.28 55.432-1.7 9.876-3.79 19.51-7.04 28.708-6.24 17.332-16.54 27.643-30.8 31.129-4.948 1.21-10.074 1.84-15.11 2.082-17.426.774-34.719-2.13-52.011-4.696-17.872-2.614-35.788-5.18-53.839-5.519-33.693-.63-66.941 4.405-99.699 14.814-4.858 1.501-9.627 3.437-14.485 5.132h-18.54c.535-.291 1.114-.678 1.694-.92 10.295-3.825 20.501-7.988 30.885-11.377 43.365-14.088 87.31-18.978 131.878-15.201 16.446 1.403 32.891 2.323 49.337 3.001 9.137.339 18.273-.92 27.276-3.728 15.824-4.889 27.274-16.944 34.184-36.357 4.01-11.232 6.82-23.044 8.47-35.244 2.98-21.253 5.7-42.554 8.2-63.952 4.37-37.616 10.83-74.506 21.84-109.895 6.68-21.592 13.19-43.28 22.01-63.613 13.28-30.5 31.38-54.367 55.45-70.15 15.15-9.875 31.19-16.169 47.64-20.72 24.87-6.923 50.14-10.263 75.32-14.184 32.36-5.084 64.76-10.264 97.11-15.637 7.36-1.21 14.62-3.196 21.93-4.842z"/><path d="M1082.99-41.713c-.31.194-.62.484-.98.581-23.88 8.279-40.69 27.885-51.96 56.255-6.82 17.234-11.64 35.583-15.33 54.27-5.17 25.948-10.08 51.994-14.62 78.136-5.262 29.871-12.437 58.869-20.549 87.578-5.348 19.025-10.34 38.293-17.203 56.545-5.749 15.346-12.524 29.725-21.705 41.973-11.32 15.104-25.003 25.174-40.067 32.145-17.649 8.182-35.788 14.185-53.883 20.237-37.616 12.587-75.053 25.755-111.777 42.408-21.75 9.876-43.276 20.576-64.491 32.34-.623.339-1.292.581-1.916.871v-7.794c.535-.242 1.07-.484 1.56-.775 15.866-8.036 31.688-16.363 47.643-24.061 37.928-18.348 76.747-33.113 115.7-47.395 19.833-7.262 39.666-14.62 58.919-24.303 11.231-5.664 21.839-12.684 31.376-22.414 13.148-13.507 22.685-30.742 30.351-49.962 6.552-16.411 11.588-33.743 16.669-51.026 7.888-26.723 15.242-53.592 19.833-81.671 4.679-28.611 9.27-57.223 14.13-85.786 3.52-20.526 7.53-40.908 13.5-60.563 5.44-17.912 12.93-33.985 24.38-46.475.27-.29.45-.727.67-1.114h39.75zm-55.35 526.722a273.08 273.08 0 002.99-2.808c4.54-4.405 7.84-10.118 10.43-16.605 4.72-11.909 7.22-24.787 8.46-37.955 1.96-20.236 3.48-40.521 4.86-60.854 1.7-25.658 3.48-51.317 6.91-76.684 3.92-29.29 11.63-56.933 20.77-83.947 5.35-15.927 11.1-31.564 18.14-46.378 16.4-34.615 39.62-58.192 68.45-72.715 17.92-9.005 36.51-15.056 55.4-18.88 24.29-4.842 48.67-9.005 73.01-13.169 27.54-4.744 55.13-9.101 82.71-13.604.58-.096 1.21-.145 1.83-.193v9.73c-.53.146-1.07.291-1.65.388-19.16 2.97-38.34 5.922-57.53 8.86-29.95 4.647-59.99 9.004-89.72 16.12-19.39 4.6-38.51 10.554-56.96 19.946-27.76 14.185-50.76 36.406-67.03 69.568-14.44 29.483-25.23 61.338-33.16 94.742-6.42 27.159-9 55.287-10.29 83.559-1.3 27.256-2.01 54.561-3.12 81.816-.85 19.995-2.14 39.892-7 59.063h-27.5z"/><path d="M1003.53-41.713h18.18c-2.36 5.52-4.99 10.844-7.08 16.557-5.35 14.572-8.96 30.015-11.46 45.75-4.945 30.79-9.669 61.628-14.081 92.515-5.348 37.325-11.722 74.118-23.087 109.265-5.749 17.864-10.874 36.116-17.871 53.302-7.889 19.413-17.605 36.841-30.797 50.687-10.162 10.602-21.571 18.058-33.471 24.448-19.521 10.506-39.621 18.542-59.811 26.433-43.855 17.186-87.576 35.05-130.362 56.642-8.423 4.26-16.802 8.714-25.181 13.12v-8.327c.713-.242 1.426-.436 2.095-.775 16.624-8.181 33.114-16.896 49.916-24.399 34.362-15.347 68.903-30.064 103.354-45.023 19.165-8.279 38.151-17.09 56.646-27.789 27.499-15.927 48.045-41.295 61.638-76.394 4.814-12.49 9.226-25.368 13.46-38.245 7.443-22.415 14.128-45.217 18.273-69.181 5.571-32.388 9.27-65.163 13.326-97.889 4.145-33.937 7.22-68.164 16.313-100.697z"/><path d="M977.501-41.713h12.658a36.32 36.32 0 01-.179 2.179c-2.184 16.799-4.679 33.55-6.507 50.445-3.922 35.97-7.443 71.988-11.231 107.959-5.259 50.493-19.387 96.969-37.838 141.362-9.583 23.044-22.285 42.748-39.087 57.465-11.81 10.36-24.557 18.542-37.66 25.755-21.66 12.007-44.034 21.641-66.318 31.371-41.225 17.961-82.273 36.551-122.83 57.03v-8.279c.713-.242 1.426-.435 2.139-.774 15.376-7.359 30.752-14.911 46.173-22.076 34.006-15.879 68.1-31.371 102.061-47.347 18.363-8.617 36.279-18.639 53.438-30.935 22.462-16.121 40.691-37.955 53.616-67.099 4.144-9.441 7.888-19.123 11.721-28.805 14.44-36.503 23.176-75.329 27.454-116.044 3.432-32.29 5.839-64.727 8.022-97.162 1.204-18.397 2.897-36.697 4.368-55.045z"/><path d="M956.732-41.713h10.385c-.045 1.307-.045 2.614-.134 3.922-.579 11.812-1.248 23.673-1.738 35.485-1.471 34.18-2.763 68.358-6.284 102.295-2.496 23.819-5.438 47.492-11.142 70.342-6.285 25.126-15.421 48.558-25.226 71.602-12.791 30.063-30.663 53.592-53.17 71.262-14.396 11.28-29.371 21.011-45.014 28.805-28.123 14.04-56.379 27.498-84.635 41.005-23.711 11.377-47.51 22.512-71.265 33.743v-8.278c6.774-3.099 13.549-6.1 20.279-9.344 36.278-17.331 72.601-34.518 108.746-52.236 19.343-9.489 38.284-20.43 56.245-33.985 18.363-13.943 34.942-30.694 48.312-52.576 9.806-15.976 17.159-33.888 24.424-51.946 10.072-25.174 17.203-51.559 20.992-79.589 4.724-34.566 6.952-69.423 7.754-104.473.476-22.011.966-44.023 1.471-66.034z"/><path d="M938.504-41.713h9.315c.044.823.133 1.646.133 2.42-.044 12.54-.089 25.03-.089 37.568-.089 31.759-.535 63.517-3.387 95.13-2.006 21.592-4.724 42.941-9.359 63.855-4.279 19.026-11.365 36.309-18.229 53.786-15.866 40.375-38.507 72.134-68.323 95.226-18.184 14.088-37.348 25.465-56.869 35.776-38.329 20.237-77.326 38.198-116.323 56.158-2.273 1.065-4.591 1.985-6.864 2.953v-8.326c.758-.242 1.56-.388 2.318-.727 23.264-10.844 46.573-21.494 69.794-32.678 25.091-12.054 50.005-24.835 74.072-40.278 18.184-11.668 35.521-25.078 51.075-42.264 18.63-20.575 32.803-45.749 44.658-73.489 10.562-24.787 18.629-50.591 22.507-78.573 3.209-23.431 5.526-46.96 5.838-70.73.357-29.725 0-59.498-.044-89.223 0-2.178-.134-4.357-.223-6.584z"/><path d="M922.548-41.713h8.156c.312 11.619.669 23.238.936 34.857.758 30.16.892 60.273-1.337 90.336-1.248 16.945-3.253 33.695-6.061 50.3-4.234 24.933-12.747 47.347-22.418 69.229-17.203 38.875-40.111 70.343-69.437 93.726-14.128 11.28-28.881 21.011-43.989 29.773-30.886 17.961-62.53 33.211-94.396 47.783-8.468 3.873-16.98 7.504-25.493 11.232v-8.279c22.507-10.409 45.148-20.43 67.521-31.322 25.092-12.249 49.605-26.094 73.226-42.7 33.248-23.383 60.791-54.851 80.936-97.017 7.933-16.606 15.688-33.356 20.902-51.85 7.621-27.159 10.697-55.48 12.257-84.236 1.292-24.642.98-49.38.267-74.07l-1.07-37.762z"/><path d="M668.509 369.45v-8.811c.669-.194 1.337-.339 1.961-.63 13.237-5.761 26.518-11.231 39.621-17.38 27.276-12.877 53.972-27.498 79.688-45.265 36.546-25.271 66.63-59.788 88.736-106.022 10.741-22.463 20.145-45.652 24.646-71.843 3.432-20.043 5.304-40.327 6.061-60.854.981-27.159.134-54.27-.935-81.38a2587.28 2587.28 0 01-.58-18.978h7.8a35.27 35.27 0 00-.09 2.179c.446 13.168.981 26.287 1.338 39.455.846 29.677.935 59.305-1.605 88.885-3.031 35.002-10.429 67.97-24.691 98.228-13.504 28.756-28.88 55.286-48.802 77.023-17.203 18.784-36.323 33.501-56.379 46.282-29.549 18.929-60.256 34.275-91.365 48.266-8.423 3.825-16.936 7.262-25.404 10.845z"/><path d="M893.222-41.713h7.399c.579 13.652 1.203 27.304 1.649 40.908.98 29.773 1.025 59.498-2.05 89.127-2.362 23.044-6.463 45.507-14.485 66.469-7.844 20.478-17.203 39.698-27.944 57.756-19.655 32.968-44.168 58.239-72.023 78.282-27.498 19.752-56.423 35.244-85.972 48.751-10.34 4.744-20.858 8.859-31.287 13.264v-9.246l1.426-.581c37.304-14.233 73.36-32.485 107.588-56.787 37.616-26.772 67.967-63.614 90.251-111.735 8.824-19.074 16.535-38.778 20.68-60.709 4.991-26.19 6.997-52.866 6.774-79.734-.223-25.271-1.292-50.494-2.006-75.765z"/><path d="M668.509 335.319v-10.263c.802-.145 1.604-.242 2.362-.484 31.777-11.232 62.218-26.917 91.276-47.395 38.552-27.256 69.527-65.018 92.479-114.156 11.766-25.222 20.368-51.897 23.621-81.38 2.719-24.206 3.477-48.557 2.942-72.957-.401-16.799-1.114-33.598-1.738-50.397h7.086c.089 1.307.268 2.614.312 3.873.446 11.183.981 22.415 1.337 33.598.936 28.466.936 56.884-2.05 85.157-2.273 21.446-6.15 42.263-13.504 61.773-21.883 57.949-53.928 103.263-96.802 135.215-27.856 20.72-57.226 36.696-87.622 49.574-6.507 2.759-13.147 5.228-19.699 7.842z"/><path d="M668.509 316.293v-10.747c.223-.097.49-.242.713-.291 26.875-8.133 52.368-21.107 76.791-37.809 41.226-28.176 73.716-68.455 97.248-121.078 9.449-21.011 16.758-43.087 20.056-67.293 3.164-23.286 4.234-46.766 3.878-70.391-.223-16.799-.936-33.598-1.471-50.397h7.443c-.045.968-.089 1.937-.045 2.905.223 6.342.535 12.684.758 19.026 1.025 28.756 1.471 57.465-1.159 86.173-1.872 20.914-5.17 41.441-12.033 60.563-17.338 48.122-41.939 88.401-74.697 119.868-23.265 22.318-48.891 38.778-75.721 52.237-13.638 6.826-27.588 12.538-41.761 17.234z"/><path d="M838.626-41.713h7.399c.089 2.76.133 5.52.178 8.279.713 25.464.891 50.88-1.293 76.2-1.782 20.623-5.08 40.714-11.81 59.643-15.555 43.862-37.571 81.139-66.496 111.106-28.97 30.015-61.415 50.251-98.095 57.901v-14.621c.847-.097 1.738-.097 2.585-.242 18.852-3.195 36.635-11.183 53.527-22.366 38.952-25.852 68.724-64.437 90.785-113.575 8.379-18.687 15.376-38.197 18.853-59.643 5.481-33.937 5.348-68.261 4.367-102.682z"/><path d="M668.509 295.331v-12.2c1.293-.29 2.585-.484 3.833-.823 66.273-19.607 118.195-66.13 154.385-141.992 7.888-16.557 14.752-33.84 18.986-52.72 4.991-22.173 7.086-44.927 7.309-67.874.178-20.478-.401-40.957-.669-61.435h7.042c1.337 31.855 2.228 63.662-.401 95.469-1.649 20.042-4.635 39.746-10.964 58.239-14.797 43.329-36.189 80.267-63.822 110.863-23.22 25.707-49.604 44.152-77.95 58.095-12.3 6.051-24.824 11.038-37.749 14.378z"/></g></g></svg>