<svg width="142" height="30" fill="none" xmlns="http://www.w3.org/2000/svg"><g clip-path="url(#clip0_452_1791)"><path d="M57.514 11.425h4.648c-.775-4.812-5.054-8.163-10.622-8.163-6.588 0-11.532 4.716-11.532 12.616 0 7.758 4.722 12.57 11.667 12.57 6.233 0 10.695-3.904 10.695-10.224V15.28H52.154v3.47h5.803c-.073 3.497-2.47 5.71-6.258 5.71-4.215 0-7.104-3.075-7.104-8.63 0-5.52 2.938-8.583 7.006-8.583 3.036 0 5.114 1.58 5.913 4.178zm7.929 16.687h4.45V9.735h-4.45v18.377zm2.244-21.298c1.414 0 2.57-1.055 2.57-2.346 0-1.292-1.156-2.359-2.57-2.359s-2.58 1.053-2.58 2.359c0 1.305 1.146 2.346 2.572 2.346h.008zm15.531 2.921h-3.725V5.32h-4.45v4.415h-2.68v3.351h2.68V23.31c-.025 3.46 2.558 5.166 5.9 5.065a9.254 9.254 0 002.62-.432l-.75-3.389a5.55 5.55 0 01-1.303.169c-1.12 0-2.017-.383-2.017-2.132v-9.514h3.725V9.735zm3.444 18.377h15.65V24.39H91.225V3.596h-4.563v24.516zm24.174.372c2.963 0 4.732-1.353 5.544-2.897h.147v2.525h4.284V15.806c0-4.86-4.068-6.32-7.671-6.32-3.971 0-7.019 1.723-8.003 5.074l4.157.577c.44-1.258 1.695-2.335 3.876-2.335 2.067 0 3.197 1.03 3.197 2.837v.072c0 1.243-1.34 1.305-4.672 1.65-3.662.384-7.166 1.45-7.166 5.592-.012 3.615 2.704 5.53 6.307 5.53zm1.463-3.18c-1.857 0-3.185-.826-3.185-2.417 0-1.665 1.487-2.358 3.469-2.634 1.169-.155 3.505-.444 4.08-.896v2.165c.013 2.04-1.685 3.777-4.364 3.777v.006zm11.789 2.808h4.376v-2.896h.258c.701 1.34 2.164 3.22 5.411 3.22 4.449 0 7.781-3.437 7.781-9.493 0-6.129-3.429-9.457-7.794-9.457-3.332 0-4.721 1.951-5.398 3.28h-.188v-9.17h-4.446v24.516zm4.364-9.192c0-3.577 1.573-5.88 4.438-5.88 2.963 0 4.489 2.454 4.489 5.88 0 3.425-1.549 5.96-4.489 5.96-2.84 0-4.438-2.394-4.438-5.96z" fill="#171321"/><path d="M31.619 11.993l-.043-.11L27.25.894a1.1 1.1 0 00-.445-.522 1.163 1.163 0 00-1.459.186 1.1 1.1 0 00-.256.45l-2.92 8.704H10.346l-2.92-8.704a1.107 1.107 0 00-.257-.45A1.173 1.173 0 005.71.373a1.1 1.1 0 00-.444.523L.942 11.885l-.045.108a7.627 7.627 0 00-.218 4.953 7.819 7.819 0 002.883 4.085l.016.012.037.028 6.58 4.802 3.265 2.402 1.983 1.46a1.364 1.364 0 001.616 0l1.983-1.46 3.264-2.402 6.627-4.83.019-.014a7.82 7.82 0 002.883-4.084 7.627 7.627 0 00-.216-4.952z" fill="#E24329"/><path d="M31.619 11.994l-.043-.111a14.78 14.78 0 00-5.815 2.547l-9.498 6.993 6.048 4.45 6.627-4.83.018-.013a7.819 7.819 0 002.881-4.085 7.628 7.628 0 00-.218-4.95z" fill="#FC6D26"/><path d="M10.195 25.874l3.265 2.402 1.983 1.46a1.363 1.363 0 001.616 0l1.983-1.46 3.264-2.402-6.047-4.45-6.064 4.45z" fill="#FCA326"/><path d="M6.755 14.43a14.767 14.767 0 00-5.813-2.545l-.045.109a7.627 7.627 0 00-.218 4.953 7.819 7.819 0 002.883 4.085l.016.012.037.027 6.58 4.802 6.052-4.45-9.492-6.993z" fill="#FC6D26"/></g><defs><clipPath id="clip0_452_1791"><path fill="#fff" transform="translate(.198)" d="M0 0h141.802v30H0z"/></clipPath></defs></svg>