<svg width="167" height="30" fill="none" xmlns="http://www.w3.org/2000/svg"><g clip-path="url(#clip0_452_1793)" fill-rule="evenodd" clip-rule="evenodd"><path d="M13.406 21.42l-7.361-7.201a3.254 3.254 0 00-4.53 0 3.086 3.086 0 000 4.431l9.626 9.417a3.254 3.254 0 004.53 0l9.062-8.864-4.53-4.431-6.797 6.648z" fill="#16B8A2"/><path d="M41.155 7.572L26.999 21.419 12.84 7.57a3.254 3.254 0 00-4.53 0 3.086 3.086 0 000 4.432l16.422 16.065a3.254 3.254 0 004.53 0l16.422-16.063a3.086 3.086 0 000-4.432 3.254 3.254 0 00-4.53 0z" fill="#FFB41F"/><path d="M52.48 18.653l-9.625 9.415a3.254 3.254 0 01-4.53 0L15.106 5.355a3.085 3.085 0 010-4.431 3.254 3.254 0 014.53 0L40.59 21.42l7.36-7.2a3.254 3.254 0 014.53 0 3.086 3.086 0 010 4.432z" fill="#F56358"/><path d="M38.889.924a3.254 3.254 0 00-4.53 0L20.203 14.77l4.53 4.432L38.889 5.355a3.086 3.086 0 000-4.431z" fill="#16B8A2"/><path d="M70.002 3.088h-3.939v22.636h14.434v-3.419H70.002V3.088zm19.02 6.806c2.396 0 4.003.955 4.885 2.125l.19-1.817H97.5v15.522h-3.404l-.189-1.817c-.882 1.17-2.49 2.125-4.885 2.125-4.317 0-7.248-3.419-7.248-8.069 0-4.681 2.93-8.069 7.248-8.069zm.82 3.265c-2.458 0-4.223 1.878-4.223 4.804s1.765 4.804 4.223 4.804c1.89 0 3.025-.985 3.876-2.31v-4.989c-.85-1.324-1.985-2.31-3.876-2.31zm17.192-8.162h-3.782v5.205h-2.994v3.142h2.994v6.898c0 3.757 2.301 5.79 5.925 5.79 1.576 0 2.742-.431 3.53-.924l-1.009-2.895c-.473.277-1.166.493-2.174.493-1.482 0-2.49-.924-2.49-2.495v-6.867h4.79v-3.142h-4.79V4.997zm13.032 0h-3.782v5.205h-2.994v3.142h2.994v6.898c0 3.757 2.301 5.79 5.925 5.79 1.576 0 2.742-.431 3.53-.924l-1.009-2.895c-.473.277-1.166.493-2.174.493-1.481 0-2.49-.924-2.49-2.495v-6.867h4.79v-3.142h-4.79V4.997zm11.992 5.205h-3.781v15.522h3.781V10.202zm-1.891-7.237c-1.323 0-2.332.955-2.332 2.279 0 1.324 1.009 2.279 2.332 2.279 1.356 0 2.364-.955 2.364-2.28 0-1.323-1.008-2.278-2.364-2.278zm13.317 6.93c-4.886 0-8.131 3.387-8.131 8.068 0 4.65 3.278 8.069 8.161 8.069 2.868 0 5.042-1.263 6.461-3.419l-2.71-2.063c-.757 1.232-1.985 2.248-3.718 2.248-2.805 0-4.35-2.125-4.35-4.835 0-2.74 1.482-4.835 4.317-4.835 1.766 0 2.931.985 3.656 2.217l2.742-2.032c-1.419-2.156-3.53-3.419-6.428-3.419zm15.742 0c4.885 0 7.28 3.572 7.28 7.914v1.293h-11.22c.095 2.464 1.608 3.82 4.254 3.82 1.86 0 3.215-.801 3.94-1.787l2.616 2.094c-1.577 1.848-3.655 2.803-6.586 2.803-4.916 0-8.068-3.388-8.068-8.038 0-4.681 3.215-8.1 7.784-8.1zm-.063 2.956c-2.237 0-3.751 1.447-3.877 3.603h7.501c-.095-2.125-1.355-3.603-3.624-3.603z" fill="#0E0E29"/></g><defs><clipPath id="clip0_452_1793"><path fill="#fff" transform="translate(.576)" d="M0 0h166.1v30H0z"/></clipPath></defs></svg>