<svg width="134" height="30" fill="none" xmlns="http://www.w3.org/2000/svg"><g clip-path="url(#clip0_452_1790)" fill-rule="evenodd" clip-rule="evenodd"><path d="M103.587 20.688c3.431 0 6.221-2.663 6.221-5.936s-2.79-5.936-6.221-5.936c-3.429 0-6.22 2.663-6.22 5.936s2.791 5.936 6.22 5.936zM109.808 0h2.947v23.52h-2.947v-2.348c-1.701 1.504-3.894 2.328-6.221 2.328-5.054 0-9.166-3.924-9.166-8.748s4.112-8.748 9.166-8.748c2.327 0 4.52.824 6.221 2.328V0zM42.473 20.584c3.43 0 6.22-2.663 6.22-5.936s-2.79-5.936-6.22-5.936c-3.43 0-6.22 2.663-6.22 5.936s2.79 5.936 6.22 5.936zM36.253 8.23c1.7-1.505 3.894-2.329 6.22-2.329 5.055 0 9.167 3.925 9.167 8.748 0 4.824-4.112 8.748-9.167 8.748-2.326 0-4.52-.824-6.22-2.328V29.4h-2.947V5.88h2.946v2.349zm21.01 5.053c.663-2.658 3.134-4.567 5.953-4.567 2.782 0 5.113 1.868 5.734 4.567H57.263zm5.953-7.402c-4.979 0-9.03 3.957-9.03 8.82s4.051 8.82 9.03 8.82c2.788 0 5.347-1.02 7.022-2.797l.87-.925.112-.119-.122-.11-1.891-1.7-.122-.11-.113.12-.87.924c-1.11 1.178-2.936 1.882-4.886 1.882-2.819 0-5.29-1.909-5.953-4.567H72.01V14.7c0-4.946-3.863-8.82-8.795-8.82zm66.963 8.82c0 3.3-2.79 5.985-6.22 5.985-3.43 0-6.22-2.685-6.22-5.985 0-3.3 2.79-5.985 6.22-5.985 3.43 0 6.22 2.685 6.22 5.985zm-6.22-8.82c-5.055 0-9.167 3.957-9.167 8.82s4.112 8.82 9.167 8.82 9.167-3.957 9.167-8.82-4.112-8.82-9.167-8.82zm-40.998 0c-2.048 0-3.998.76-5.534 2.146V5.88h-2.869v17.64h2.869v-9.002c0-3.212 2.482-5.825 5.534-5.825 3.052 0 5.535 2.613 5.535 5.825v9.002h2.868v-9.002c0-4.763-3.77-8.638-8.403-8.638z" fill="#1A2022"/><path d="M.032 16.8h13.864V30L27.76 16.8V3.6H13.896L.032 16.8z" fill="#FF4876"/></g><defs><clipPath id="clip0_452_1790"><path fill="#fff" transform="translate(.032)" d="M0 0h133.094v30H0z"/></clipPath></defs></svg>