<svg width="150" height="30" fill="none" xmlns="http://www.w3.org/2000/svg"><g clip-path="url(#clip0_452_1789)" fill-rule="evenodd" clip-rule="evenodd" fill="#282828"><path d="M14.075 13.637l.254-.07a49.953 49.953 0 005.57-1.99 20.735 20.735 0 005.126-2.844 10.86 10.86 0 003.592-4.95c.15-.32.259-.658.326-1.004-2.492 3.318-12.37 3.664-12.37 3.664l2.332-2.083C12.118 4.383 5.508 6.473 0 10.337c3.73.39 7.24 1.918 10.026 4.367 1.338-.404 2.705-.692 4.049-1.056v-.011zm15.49-.329a55.744 55.744 0 00-18.586 2.308 17.46 17.46 0 013.126 4.344c4.977-2.7 11.878-6.15 15.46-6.64v-.012zm-14.833 8.03a16.95 16.95 0 011.124 4.616l8.683-8.694-9.807 4.079zm4.557 4.264v-.092a.193.193 0 00-.035-.104.107.107 0 00-.089-.046h.077a.155.155 0 00.071-.138.167.167 0 00-.107-.174.5.5 0 00-.183 0h-.243v.652h.13v-.236h.095a.264.264 0 01.125 0c.04.032.06.082.053.133v.098h.13l-.024-.093zm-.384-.507h.082a.31.31 0 01.137 0c.026.018.04.05.035.08a.087.087 0 01-.06.093.346.346 0 01-.106 0h-.088v-.22.047z"/><path d="M19.45 24.905a.6.6 0 00-.865 0 .57.57 0 00-.178.421.57.57 0 00.178.422.6.6 0 00.864 0 .57.57 0 000-.843zm-.433.912a.492.492 0 01-.355-.837.504.504 0 01.71 0 .492.492 0 01-.355.837zm63.29-8.263a3.998 3.998 0 01-3.445-1.938 3.792 3.792 0 010-3.877A3.998 3.998 0 0182.307 9.8c2.196 0 3.977 1.736 3.977 3.877 0 2.142-1.78 3.877-3.977 3.877zm0-11.982c-3.435.04-6.488 2.14-7.677 5.281-1.188 3.142-.265 6.672 2.32 8.876 2.587 2.203 6.299 2.623 9.334 1.056v.98c-.003 2.14-1.782 3.875-3.977 3.878-1.197 0-2.166.945-2.166 2.111 0 1.166.97 2.112 2.166 2.112 4.57-.016 8.27-3.623 8.286-8.077v-8.077c-.016-4.454-3.717-8.061-8.286-8.077v-.063zM41.36 17.554c-2.196.004-3.98-1.73-3.983-3.87-.003-2.142 1.775-3.88 3.972-3.884 2.196-.003 3.98 1.73 3.983 3.872.003 2.14-1.775 3.88-3.971 3.882zm0-11.982c-4.569.015-8.27 3.623-8.286 8.076v11.539c0 .754.413 1.451 1.083 1.829.67.377 1.496.377 2.167 0a2.102 2.102 0 001.083-1.829v-4.42c1.217.65 2.583.99 3.971.987 4.591 0 8.313-3.627 8.313-8.103 0-4.475-3.722-8.103-8.313-8.103l-.017.024zm23.309 0c-4.57.015-8.27 3.623-8.287 8.077v5.988c0 1.166.97 2.111 2.167 2.111 1.196 0 2.166-.945 2.166-2.111v-5.96c0-2.138 1.778-3.87 3.971-3.87 2.194 0 3.972 1.732 3.972 3.87v5.989a2.098 2.098 0 001.048 1.92 2.214 2.214 0 002.231 0 2.098 2.098 0 001.048-1.92v-5.989c-.016-4.454-3.717-8.061-8.287-8.077l-.03-.028zm52.926 11.913c-2.197.003-3.98-1.73-3.984-3.871-.003-2.141 1.775-3.88 3.972-3.883 2.196-.003 3.98 1.73 3.983 3.871.003 2.141-1.775 3.88-3.971 3.883zm0-11.983c-4.577 0-8.287 3.616-8.287 8.077s3.71 8.077 8.287 8.077c4.576 0 8.286-3.616 8.286-8.077-.016-4.454-3.717-8.061-8.286-8.077zM99.951 17.554c-2.197 0-3.978-1.735-3.978-3.877 0-2.14 1.781-3.877 3.978-3.877 2.196 0 3.977 1.736 3.977 3.877-.003 2.14-1.782 3.874-3.977 3.877zm6.137-17.52c-1.196 0-2.166.944-2.166 2.11v4.42c-3.276-1.737-7.338-1.127-9.926 1.49s-3.063 6.597-1.161 9.724c1.902 3.127 5.712 4.63 9.309 3.673 3.598-.957 6.096-4.139 6.105-7.774V2.14c0-1.166-.97-2.112-2.166-2.112l.005.006zM52.861 5.571c-1.197 0-2.166.945-2.166 2.111V19.66c0 1.166.97 2.112 2.166 2.112s2.166-.946 2.166-2.112V7.689c0-1.166-.97-2.112-2.166-2.112v-.005zm-2.166-3.427c0 1.166.97 2.111 2.166 2.111s2.166-.945 2.166-2.111c0-1.167-.97-2.112-2.166-2.112-1.197 0-2.166.945-2.166 2.112zm87.604 19.563c.575 0 1.127-.223 1.533-.62.407-.398.634-.936.633-1.497v-8.977c0-.488.405-.883.905-.883 2.195.003 3.972 1.738 3.972 3.877v5.96c0 1.166.97 2.111 2.166 2.111 1.197 0 2.166-.945 2.166-2.111v-5.96c-.016-4.454-3.717-8.061-8.286-8.077a8.344 8.344 0 00-3.072.577 8.346 8.346 0 00-3.072-.577c-4.568.02-8.266 3.624-8.286 8.077v5.96c0 1.166.97 2.111 2.166 2.111 1.197 0 2.167-.945 2.167-2.111v-5.96c0-2.139 1.777-3.874 3.971-3.877.5 0 .906.395.906.883v8.954c-.002.56.226 1.1.632 1.496.407.398.958.621 1.534.621l-.035.023z"/></g><defs><clipPath id="clip0_452_1789"><path fill="#fff" d="M0 0h149.745v30H0z"/></clipPath></defs></svg>