<svg width="176" height="30" fill="none" xmlns="http://www.w3.org/2000/svg"><g clip-path="url(#clip0_452_1792)" fill-rule="evenodd" clip-rule="evenodd"><path d="M61.115 19.12c.728-1.587 2.255-2.667 4.267-2.667 2.013 0 3.504.912 4.129 2.668h-8.396zm13.183 2.027c0-4.863-3.643-8.747-8.95-8.747-4.996 0-9.02 3.917-9.02 8.78 0 4.864 3.746 8.781 9.158 8.781 3.749 0 6.445-1.76 7.962-4.283l-3.77-2.188c-.8 1.494-2.335 2.419-4.157 2.419-2.498 0-4.059-1.216-4.614-3.074h13.391v-1.688zm96.764 0c0-2.499-1.873-4.525-4.44-4.525-2.637 0-4.649 1.925-4.649 4.525 0 2.6 2.012 4.56 4.649 4.56 2.567 0 4.44-2.06 4.44-4.56zm-13.738.034c0-5.977 4.51-8.78 8.43-8.78 2.255 0 4.025.81 5.17 1.992V4.97h4.753v24.652h-4.753v-1.89c-1.145 1.317-2.984 2.228-5.239 2.228-3.677 0-8.361-2.837-8.361-8.78zm-3.492-11.013c1.571 0 2.844-1.239 2.844-2.768 0-1.528-1.273-2.767-2.844-2.767-1.57 0-2.842 1.239-2.842 2.767 0 1.529 1.272 2.768 2.842 2.768zm-2.376 2.57h4.753v16.885h-4.753V17.23h-1.725l1.725-4.492zm-12.662 0h4.719v2.77c.867-1.757 2.428-2.77 4.787-2.77h1.909l-1.724 4.492h-1.295c-2.532 0-3.643 1.283-3.643 4.424v7.97h-4.753V12.737zm-26.738 4.56c0-7.025 5.447-12.665 12.94-12.665 3.749 0 6.901 1.314 9.183 3.407a12.31 12.31 0 012.335 2.908l-4.232 2.5c-1.561-2.804-3.955-4.256-7.251-4.256-4.614 0-8.188 3.681-8.188 8.105 0 4.526 3.504 8.105 8.361 8.105 3.678 0 6.28-2.026 7.182-5.167h-7.945v-4.491h13.149v1.89c0 6.62-4.857 12.327-12.386 12.327-7.91 0-13.148-5.842-13.148-12.664zm-5.73 3.849c0-2.499-1.873-4.525-4.44-4.525-2.637 0-4.65 1.925-4.65 4.525 0 2.6 2.013 4.56 4.65 4.56 2.567 0 4.44-2.06 4.44-4.56zm-13.738.034c0-5.977 4.51-8.78 8.43-8.78 2.255 0 4.025.81 5.17 1.992V4.97h4.753v24.652h-4.753v-1.89c-1.145 1.317-2.984 2.228-5.239 2.228-3.678 0-8.361-2.837-8.361-8.78zM75.41 12.738h4.718v1.891c1.11-1.384 2.81-2.229 4.788-2.229 4.093 0 6.557 2.567 6.557 6.923v10.3H86.65v-9.692c0-2.262-1.075-3.58-3.191-3.58-1.805 0-3.296 1.216-3.296 4.053v9.22h-4.754V12.737zm-38.808 12.8l4.406-3.378c1.249 2.094 3.226 3.31 5.481 3.31 2.464 0 3.782-1.554 3.782-3.243 0-2.026-2.533-2.667-5.239-3.478-3.4-1.013-7.181-2.296-7.181-7.024 0-3.951 3.539-7.092 8.43-7.092 4.129 0 6.488 1.52 8.535 3.58l-3.99 2.938c-1.04-1.52-2.532-2.33-4.51-2.33-2.255 0-3.469 1.182-3.469 2.735 0 1.891 2.428 2.533 5.134 3.41 3.435 1.081 7.32 2.568 7.32 7.296 0 3.917-3.191 7.7-8.777 7.7-4.579 0-7.632-1.892-9.922-4.425z" fill="#212F38"/><path d="M10.656 29.624h10.13v-9.86h-10.13v9.86zM.526 19.763h10.13v-9.86H.526v9.86z" fill="#9DD6E3"/><path d="M.526 29.624h10.13v-9.86H.526v9.86z" fill="#3F72AB"/><path d="M20.786 19.763h10.13v-9.86h-10.13v9.86zm-10.13-9.859h10.13V.043h-10.13v9.86z" fill="#00A9D1"/><path d="M10.656 19.763h10.13v-9.86h-10.13v9.86z" fill="#2191C4"/><path d="M20.786 9.904h10.13V.043h-10.13v9.86z" fill="#3F72AB"/></g><defs><clipPath id="clip0_452_1792"><path fill="#fff" transform="translate(.475)" d="M0 0h175.298v30H0z"/></clipPath></defs></svg>