<svg width="1440" height="420" fill="none" xmlns="http://www.w3.org/2000/svg"><path fill="#1E1E1E" d="M0 0h1440v420H0z"/><mask id="mask0_411_4714" style="mask-type:alpha" maskUnits="userSpaceOnUse" x="0" y="0" width="1440" height="420"><path fill="#1E1E1E" d="M0 0h1440v420H0z"/></mask><g mask="url(#mask0_411_4714)" fill="#16B8A2"><path d="M1338.81 130.5l115-130.5h17.5l-62.5 72c30.4-8.8.33 37.333-18.5 61.5l97.5-98V63l-16.5 15.5-189.5 181.5c-59.17 59.5-183.7 184.2-208.5 207-24.8 22.8-24 9.5-20.5 0l312-307.5c-6.67 6.333-13.9 9.4 10.5-29s-.84-14-16.5 3c-24 16.4-23.34 4.833-20-3zM112 289.09L-3 419.59h-17.5l62.5-72c-30.4 8.8-.333-37.334 18.5-61.5l-97.5 98v-27.5l16.5-15.5L169 159.59c59.167-59.5 183.7-184.2 208.5-207 24.8-22.8 24-9.5 20.5 0L86 260.09c6.667-6.334 13.9-9.4-10.5 29s.833 14 16.5-3c24-16.4 23.333-4.834 20 3zM1331.81 255l-197.5 184.5c-23.2 4.4-20.67-1.833-16.5-5.5l371-345.5 14 6-171 160.5zM119 164.59l197.5-184.5c23.2-4.4 20.667 1.833 16.5 5.5l-371 345.5-14-6 171-160.5zM1289.31 360c-22 14.8-44.84 50.833-53.5 67l-47-4.5 6-6 292-292V168l-70 69.5c-33.34 34.667-105.5 107.7-127.5 122.5zM161.5 59.59c22-14.8 44.833-50.834 53.5-67l47 4.5-6 6-292 292v-43.5l70-69.5c33.334-34.667 105.5-107.7 127.5-122.5zm1324.31 221.411c8.5-21.5 22.9-60.4 12.5-44-10.28 16.207-150 127.835-221 183.539l4 12.46 133.5-102-85.5 88.5 16.5 3.001 140-141.5zM-35 138.589c-8.5 21.5-22.9 60.4-12.5 44 10.278-16.207 149.997-127.835 221-183.54l-4-12.46L36 88.59 121.5.09l-16.5-3-140 141.5z"/></g></svg>